[Header]
FileType HTR
DataType HTRS
FileVersion 1
NumSegments 64
NumFrames 3
DataFrameRate 24
EulerRotationOrder ZYX
CalibrationUnits mm
RotationUnits Degrees
GlobalAxisofGravity Y
BoneLengthAxis Y
ScaleFactor 1.0
[SegmentNames&Hierarchy]
Hips	GLOBAL
Spine	Hips
Spine1	Spine
Spine2	Spine1
Neck	Spine2
Head	Neck
LeftEye	Head
RightEye	Head
LeftShoulder	Spine2
LeftArm	LeftShoulder
LeftForeArm	LeftArm
LeftHand	LeftForeArm
LeftHandThumb1	LeftHand
LeftHandThumb2	LeftHandThumb1
LeftHandThumb3	LeftHandThumb2
LeftHandThumb4	LeftHandThumb3
LeftHandIndex1	LeftHand
LeftHandIndex2	LeftHandIndex1
LeftHandIndex3	LeftHandIndex2
LeftHandIndex4	LeftHandIndex3
LeftHandMiddle1	LeftHand
LeftHandMiddle2	LeftHandMiddle1
LeftHandMiddle3	LeftHandMiddle2
LeftHandMiddle4	LeftHandMiddle3
LeftHandRing1	LeftHand
LeftHandRing2	LeftHandRing1
LeftHandRing3	LeftHandRing2
LeftHandRing4	LeftHandRing3
LeftHandPinky1	LeftHand
LeftHandPinky2	LeftHandPinky1
LeftHandPinky3	LeftHandPinky2
LeftHandPinky4	LeftHandPinky3
RightShoulder	Spine2
RightArm	RightShoulder
RightForeArm	RightArm
RightHand	RightForeArm
RightHandPinky1	RightHand
RightHandPinky2	RightHandPinky1
RightHandPinky3	RightHandPinky2
RightHandPinky4	RightHandPinky3
RightHandRing1	RightHand
RightHandRing2	RightHandRing1
RightHandRing3	RightHandRing2
RightHandRing4	RightHandRing3
RightHandMiddle1	RightHand
RightHandMiddle2	RightHandMiddle1
RightHandMiddle3	RightHandMiddle2
RightHandMiddle4	RightHandMiddle3
RightHandIndex1	RightHand
RightHandIndex2	RightHandIndex1
RightHandIndex3	RightHandIndex2
RightHandIndex4	RightHandIndex3
RightHandThumb1	RightHand
RightHandThumb2	RightHandThumb1
RightHandThumb3	RightHandThumb2
RightHandThumb4	RightHandThumb3
LeftUpLeg	Hips
LeftLeg	LeftUpLeg
LeftFoot	LeftLeg
LeftToeBase	LeftFoot
RightUpLeg	Hips
RightLeg	RightUpLeg
RightFoot	RightLeg
RightToeBase	RightFoot
[BasePosition]
Hips	0	0	0	0	0	0	1
Spine	0	0	0	0	0	0	1
Spine1	0	0	0	0	0	0	1
Spine2	0	0	0	0	0	0	1
Neck	0	0	0	0	0	0	1
Head	0	0	0	0	0	0	1
LeftEye	0	0	0	0	0	0	1
RightEye	0	0	0	0	0	0	1
LeftShoulder	0	0	0	0	0	0	1
LeftArm	0	0	0	0	0	0	1
LeftForeArm	0	0	0	0	0	0	1
LeftHand	0	0	0	0	0	0	1
LeftHandThumb1	0	0	0	0	0	0	1
LeftHandThumb2	0	0	0	0	0	0	1
LeftHandThumb3	0	0	0	0	0	0	1
LeftHandThumb4	0	0	0	0	0	0	1
LeftHandIndex1	0	0	0	0	0	0	1
LeftHandIndex2	0	0	0	0	0	0	1
LeftHandIndex3	0	0	0	0	0	0	1
LeftHandIndex4	0	0	0	0	0	0	1
LeftHandMiddle1	0	0	0	0	0	0	1
LeftHandMiddle2	0	0	0	0	0	0	1
LeftHandMiddle3	0	0	0	0	0	0	1
LeftHandMiddle4	0	0	0	0	0	0	1
LeftHandRing1	0	0	0	0	0	0	1
LeftHandRing2	0	0	0	0	0	0	1
LeftHandRing3	0	0	0	0	0	0	1
LeftHandRing4	0	0	0	0	0	0	1
LeftHandPinky1	0	0	0	0	0	0	1
LeftHandPinky2	0	0	0	0	0	0	1
LeftHandPinky3	0	0	0	0	0	0	1
LeftHandPinky4	0	0	0	0	0	0	1
RightShoulder	0	0	0	0	0	0	1
RightArm	0	0	0	0	0	0	1
RightForeArm	0	0	0	0	0	0	1
RightHand	0	0	0	0	0	0	1
RightHandPinky1	0	0	0	0	0	0	1
RightHandPinky2	0	0	0	0	0	0	1
RightHandPinky3	0	0	0	0	0	0	1
RightHandPinky4	0	0	0	0	0	0	1
RightHandRing1	0	0	0	0	0	0	1
RightHandRing2	0	0	0	0	0	0	1
RightHandRing3	0	0	0	0	0	0	1
RightHandRing4	0	0	0	0	0	0	1
RightHandMiddle1	0	0	0	0	0	0	1
RightHandMiddle2	0	0	0	0	0	0	1
RightHandMiddle3	0	0	0	0	0	0	1
RightHandMiddle4	0	0	0	0	0	0	1
RightHandIndex1	0	0	0	0	0	0	1
RightHandIndex2	0	0	0	0	0	0	1
RightHandIndex3	0	0	0	0	0	0	1
RightHandIndex4	0	0	0	0	0	0	1
RightHandThumb1	0	0	0	0	0	0	1
RightHandThumb2	0	0	0	0	0	0	1
RightHandThumb3	0	0	0	0	0	0	1
RightHandThumb4	0	0	0	0	0	0	1
LeftUpLeg	0	0	0	0	0	0	1
LeftLeg	0	0	0	0	0	0	1
LeftFoot	0	0	0	0	0	0	1
LeftToeBase	0	0	0	0	0	0	1
RightUpLeg	0	0	0	0	0	0	1
RightLeg	0	0	0	0	0	0	1
RightFoot	0	0	0	0	0	0	1
RightToeBase	0	0	0	0	0	0	1
[Hips]
15	-1147.17334	1016.523987	30.31904221	-19.90618706	-82.31184387	22.81380081	1.0
16	-1229.847778	1003.520264	25.22407913	-10.63090515	-80.58525085	14.40174389	1.0
17	-1314.892456	988.057251	20.49518204	-5.871006966	-79.40512848	9.961526871	1.0
[Spine]
15	0	101.8159943	1.315000057	3.148345947	4.830057144	-2.647249699	1.0
16	0	101.8159943	1.315000057	2.712017298	3.123995543	-2.477529287	1.0
17	0	101.8159943	1.315000057	2.380684137	2.198970556	-2.148808956	1.0
[Spine1]
15	0	100.8349991	-10.00800037	0.9840852022	14.6758709	-1.923458099	1.0
16	0	100.8349991	-10.00800037	0.7280792594	14.17815971	-1.971784115	1.0
17	0	100.8349991	-10.00800037	0.572060883	13.8855629	-1.987571359	1.0
[Spine2]
15	0	91	-13.73399925	0.73078233	14.6300621	-2.278301001	1.0
16	0	91	-13.73399925	0.4729159772	14.12913418	-2.323879957	1.0
17	0	91	-13.73399925	0.3160463572	13.83710194	-2.337763548	1.0
[Neck]
15	0	166.7169952	-25.16200066	4.409690857	6.417686462	-0.1750215292	1.0
16	0	166.7169952	-25.16200066	4.166505814	6.492224693	0.3763183057	1.0
17	0	166.7169952	-25.16200066	3.987063885	6.529782295	0.5440499783	1.0
[Head]
15	0	96.17900085	16.84999847	-16.58481979	39.48371887	-10.19149399	1.0
16	0	96.17900085	16.84999847	-16.79406929	39.57368469	-9.217662811	1.0
17	0	96.17900085	16.84999847	-16.49752998	39.50384903	-8.586043358	1.0
[LeftEye]
15	30.6760006	64.09500122	92.83599854	0	0	0	1.0
16	30.6760006	64.09500122	92.83599854	0	0	0	1.0
17	30.6760006	64.09500122	92.83599854	0	0	0	1.0
[RightEye]
15	-30.6760006	64.09500122	92.83499908	0	0	0	1.0
16	-30.6760006	64.09500122	92.83499908	0	0	0	1.0
17	-30.6760006	64.09500122	92.83499908	0	0	0	1.0
[LeftShoulder]
15	45.70400238	109.4599991	-26.28000069	3.867087841	-3.928418636	-6.867941856	1.0
16	45.70400238	109.4599991	-26.28000069	3.790602446	-5.7695961	-4.735469341	1.0
17	45.70400238	109.4599991	-26.28000069	3.724241495	-6.696146488	-3.806554556	1.0
[LeftArm]
15	105.923996	-5.24600029	-22.32099915	27.54014778	-19.86013412	-59.31433868	1.0
16	105.923996	-5.24600029	-22.32099915	27.47731781	-25.18382454	-57.28726578	1.0
17	105.923996	-5.24600029	-22.32099915	24.24278069	-29.53687859	-55.32061005	1.0
[LeftForeArm]
15	278.414978	-0.0009999999311	0	7.069022104e-06	-30.17828751	-0.0002094099182	1.0
16	278.414978	-0.0009999999311	0	6.030871191e-06	-34.83913803	-0.0002125993051	1.0
17	278.414978	-0.0009999999311	0	-5.506959951e-06	-38.30755234	-0.0001963201066	1.0
[LeftHand]
15	283.2879944	0	0	6.837203026	-0.6421795487	-6.790234566	1.0
16	283.2879944	0	0	2.941407204	-1.490332365	-4.906000614	1.0
17	283.2879944	0	0	6.566277504	-2.595436096	-1.613943577	1.0
[LeftHandThumb1]
15	24.6609993	-15.75	26.8239994	7.857234955	-1.195163488	-0.7796609998	1.0
16	24.6609993	-15.75	26.8239994	8.70911026	-3.806015253	-2.903416157	1.0
17	24.6609993	-15.75	26.8239994	9.026753426	-5.738783836	-4.049863338	1.0
[LeftHandThumb2]
15	32.29800034	-18.64699936	18.64699936	3.0032022	20.47198486	10.74207115	1.0
16	32.29800034	-18.64699936	18.64699936	1.594259977	21.37955475	10.73282051	1.0
17	32.29800034	-18.64699936	18.64699936	0.8006846905	22.22798157	10.62391567	1.0
[LeftHandThumb3]
15	26.52600098	-15.31499958	15.31499958	2.850841045	12.12533951	0.9745579958	1.0
16	26.52600098	-15.31499958	15.31499958	2.731329918	11.78641224	1.061954021	1.0
17	26.52600098	-15.31499958	15.31499958	2.608279467	11.43803024	1.15190959	1.0
[LeftHandThumb4]
15	19.54599953	-11.28499985	11.28499985	0	0	0	1.0
16	19.54599953	-11.28499985	11.28499985	0	0	0	1.0
17	19.54599953	-11.28499985	11.28499985	0	0	0	1.0
[LeftHandIndex1]
15	91.09299469	-5.170999527	22.60099792	-0.5389309525	0.3805389702	-7.682988644	1.0
16	91.09299469	-5.170999527	22.60099792	-0.5487294197	-0.07069800794	-7.552716255	1.0
17	91.09299469	-5.170999527	22.60099792	-0.6333650947	-0.4836001694	-8.437010765	1.0
[LeftHandIndex2]
15	36.76399994	0	0	0.01406938024	0.8201827407	-0.3283876777	1.0
16	36.76399994	0	0	0.01812251098	0.7840311527	-8.202761819e-05	1.0
17	36.76399994	0	0	0.01754730009	0.7952575684	-0.04117354751	1.0
[LeftHandIndex3]
15	28.83100128	0	0	-0.02379032969	-0.4094973207	1.963943481	1.0
16	28.83100128	0	0	-0.0318229273	-0.5935750604	3.795099974	1.0
17	28.83100128	0	0	-0.03612994403	-0.6536691189	4.394260406	1.0
[LeftHandIndex4]
15	23.92700005	0	0	0	0	0	1.0
16	23.92700005	0	0	0	0	0	1.0
17	23.92700005	0	0	0	0	0	1.0
[LeftHandMiddle1]
15	95.33399963	0	0	-2.213531017	5.709208012	-21.78572464	1.0
16	95.33399963	0	0	-2.177077532	5.419895172	-21.52385139	1.0
17	95.33399963	0	0	-2.257809401	5.138707161	-22.19388962	1.0
[LeftHandMiddle2]
15	36.98199844	0	0	-0.07458094507	1.336239576	-5.173560143	1.0
16	36.98199844	0	0	-0.03052448481	1.157729268	-3.361244917	1.0
17	36.98199844	0	0	-0.01043314114	1.064303279	-2.419187069	1.0
[LeftHandMiddle3]
15	29.50900078	0	0	0.003841470927	0.2071576566	0.7001667619	1.0
16	29.50900078	0	0	0.003169269068	-0.001568444073	2.796098709	1.0
17	29.50900078	0	0	-0.002376377583	-0.1363227069	4.150884628	1.0
[LeftHandMiddle4]
15	28.3390007	0	0	0	0	0	1.0
16	28.3390007	0	0	0	0	0	1.0
17	28.3390007	0	0	0	0	0	1.0
[LeftHandRing1]
15	91.04499817	-0.4390000105	-18.65100098	-3.258989096	11.82346344	-28.65620422	1.0
16	91.04499817	-0.4390000105	-18.65100098	-3.033669472	11.30618858	-27.12965393	1.0
17	91.04499817	-0.4390000105	-18.65100098	-2.91383934	10.82049561	-26.38738632	1.0
[LeftHandRing2]
15	31.54000092	0	0	-0.0241104681	1.126953483	-7.920748711	1.0
16	31.54000092	0	0	-0.003522451036	0.897360146	-5.597694397	1.0
17	31.54000092	0	0	0.003419996705	0.7461742163	-4.072128296	1.0
[LeftHandRing3]
15	29.37700081	0	0	0.06458587199	0.3980605602	-4.088518143	1.0
16	29.37700081	0	0	0.05384020507	0.1229240075	-1.324003816	1.0
17	29.37700081	0	0	0.03348501772	-0.09240936488	0.8477858305	1.0
[LeftHandRing4]
15	26.47500038	0	0	0	0	0	1.0
16	26.47500038	0	0	0	0	0	1.0
17	26.47500038	0	0	0	0	0	1.0
[LeftHandPinky1]
15	80.77799988	-4.887000084	-38.06099701	-4.211026192	14.30858231	-35.37941742	1.0
16	80.77799988	-4.887000084	-38.06099701	-3.93766737	13.51402473	-33.76795197	1.0
17	80.77799988	-4.887000084	-38.06099701	-3.793099165	12.79434013	-32.53820038	1.0
[LeftHandPinky2]
15	36	0	0	-0.265899837	1.242832065	-14.48674774	1.0
16	36	0	0	-0.1655346304	0.9104906917	-11.01551914	1.0
17	36	0	0	-0.1001788452	0.619263649	-8.032746315	1.0
[LeftHandPinky3]
15	21.14200211	0	0	-0.01703866944	0.8982771039	-0.4045101404	1.0
16	21.14200211	0	0	0.01004322898	0.554217875	3.036936283	1.0
17	21.14200211	0	0	0.01200298313	0.2584781647	5.984912395	1.0
[LeftHandPinky4]
15	19.75699997	0	0	0	0	0	1.0
16	19.75699997	0	0	0	0	0	1.0
17	19.75699997	0	0	0	0	0	1.0
[RightShoulder]
15	-45.70000076	109.4620056	-26.28000069	6.476714134	18.68500137	16.43229675	1.0
16	-45.70000076	109.4620056	-26.28000069	6.127659798	16.94470024	15.80549908	1.0
17	-45.70000076	109.4620056	-26.28000069	5.575556755	15.22945595	13.93941879	1.0
[RightArm]
15	-105.9280014	-5.248000145	-22.32099915	-18.53224564	-14.08089638	66.90220642	1.0
16	-105.9280014	-5.248000145	-22.32099915	-22.89826965	-20.40472412	69.85140991	1.0
17	-105.9280014	-5.248000145	-22.32099915	-26.68756485	-25.27179146	73.80469513	1.0
[RightForeArm]
15	-278.414978	0	0	7.237732461e-06	3.053150654	8.718636764e-07	1.0
16	-278.414978	0	0	1.281435198e-05	3.407015085	7.136547993e-06	1.0
17	-278.414978	0	0	-1.473277507e-06	4.022405148	1.131282443e-05	1.0
[RightHand]
15	-283.2879944	0	0.0009999999311	27.13860703	22.11850548	-7.045451164	1.0
16	-283.2879944	0	0.0009999999311	25.57780838	13.58166504	-5.199327469	1.0
17	-283.2879944	0	0.0009999999311	20.78541565	4.653101444	-2.682344437	1.0
[RightHandPinky1]
15	-80.76699829	-4.885000229	-38.06000137	-1.590005636	-15.86441231	14.46440601	1.0
16	-80.76699829	-4.885000229	-38.06000137	-1.464796305	-15.47269154	12.68379784	1.0
17	-80.76699829	-4.885000229	-38.06000137	-1.403903842	-15.78324413	12.97489357	1.0
[RightHandPinky2]
15	-36	0	0.0009999999311	-0.0006446032785	0.162112385	0.1738957018	1.0
16	-36	0	0.0009999999311	-0.005663513672	0.09300868958	0.8662074804	1.0
17	-36	0	0.0009999999311	-0.002885295544	0.1353306919	0.4424852431	1.0
[RightHandPinky3]
15	-21.14200211	0	0	-0.1925676316	3.45874691	-12.81704617	1.0
16	-21.14200211	0	0	-0.1766899526	3.334648848	-11.56884575	1.0
17	-21.14200211	0	0	-0.1806476265	3.367581367	-11.89965343	1.0
[RightHandPinky4]
15	-19.75699997	0	0	0	0	0	1.0
16	-19.75699997	0	0	0	0	0	1.0
17	-19.75699997	0	0	0	0	0	1.0
[RightHandRing1]
15	-91.03599548	-0.4390000105	-18.65100098	-1.482927084	-12.37484169	14.11794567	1.0
16	-91.03599548	-0.4390000105	-18.65100098	-1.221721768	-12.47089291	11.80624008	1.0
17	-91.03599548	-0.4390000105	-18.65100098	-1.298237801	-12.56821442	12.44944096	1.0
[RightHandRing2]
15	-31.54000092	0	0	0.002199356444	-0.3321798444	-0.08405908197	1.0
16	-31.54000092	0	0	0.003044159384	-0.3644424379	0.2244339883	1.0
17	-31.54000092	0	0	0.001908280537	-0.3388608992	0.0002327608236	1.0
[RightHandRing3]
15	-29.37700081	0	0	-0.2170865536	2.817684889	-9.859811783	1.0
16	-29.37700081	0	0	-0.1943768412	2.731448889	-8.963167191	1.0
17	-29.37700081	0	0	-0.2000106424	2.752883673	-9.186016083	1.0
[RightHandRing4]
15	-26.47500038	0	0	0	0	0	1.0
16	-26.47500038	0	0	0	0	0	1.0
17	-26.47500038	0	0	0	0	0	1.0
[RightHandMiddle1]
15	-95.32500458	0	0	-0.8733856082	-8.481881142	10.24381447	1.0
16	-95.32500458	0	0	-0.523984611	-8.31008625	7.13239193	1.0
17	-95.32500458	0	0	-0.584934175	-8.454662323	7.687260628	1.0
[RightHandMiddle2]
15	-36.98199844	0	0	0.03632057831	-0.8075088263	-0.1134891957	1.0
16	-36.98199844	0	0	0.03220568225	-0.8342950344	0.1130400151	1.0
17	-36.98199844	0	0	0.03422232345	-0.8153684139	-0.0001171081021	1.0
[RightHandMiddle3]
15	-29.50900078	0	0	-0.01098921336	0.2769794464	-3.995323658	1.0
16	-29.50900078	0	0	-0.008238357492	0.2085977197	-3.307803869	1.0
17	-29.50900078	0	0	-0.008565304801	0.2167916447	-3.390239954	1.0
[RightHandMiddle4]
15	-28.3390007	0	0.0009999999311	0	0	0	1.0
16	-28.3390007	0	0.0009999999311	0	0	0	1.0
17	-28.3390007	0	0.0009999999311	0	0	0	1.0
[RightHandIndex1]
15	-91.08300018	-5.167999744	22.60099792	0.01958061755	-2.011266708	1.651275873	1.0
16	-91.08300018	-5.167999744	22.60099792	0.5257778168	-1.247739196	-3.371001482	1.0
17	-91.08300018	-5.167999744	22.60099792	0.445355624	-1.579708219	-2.434694052	1.0
[RightHandIndex2]
15	-36.76399994	0	0	0.01582187787	-0.803029418	0.1648760587	1.0
16	-36.76399994	0	0	0.01112202182	-0.8407250047	0.4923201799	1.0
17	-36.76399994	0	0	0.01139774919	-0.8387184739	0.4723234773	1.0
[RightHandIndex3]
15	-28.83100128	0	0	-0.08460278809	0.828430295	3.911693573	1.0
16	-28.83100128	0	0	-0.08835984766	0.7756780386	4.437431812	1.0
17	-28.83100128	0	0	-0.08815296739	0.7782407999	4.411934376	1.0
[RightHandIndex4]
15	-23.92700005	0	0	0	0	0	1.0
16	-23.92700005	0	0	0	0	0	1.0
17	-23.92700005	0	0	0	0	0	1.0
[RightHandThumb1]
15	-24.64799881	-15.72700024	26.82600021	7.32828331	-0.8984130621	-0.7721399665	1.0
16	-24.64799881	-15.72700024	26.82600021	7.318750381	-0.8753147125	-0.7609717846	1.0
17	-24.64799881	-15.72700024	26.82600021	7.30581665	-0.845326364	-0.7475562692	1.0
[RightHandThumb2]
15	-32.29800034	-18.64699936	18.64699936	11.89954376	-14.83659554	-13.77458763	1.0
16	-32.29800034	-18.64699936	18.64699936	9.396155357	-13.22412968	-14.56674767	1.0
17	-32.29800034	-18.64699936	18.64699936	9.580619812	-13.71855927	-14.41707706	1.0
[RightHandThumb3]
15	-26.52600098	-15.31399918	15.31399918	3.590418339	-1.481630564	1.0089221	1.0
16	-26.52600098	-15.31399918	15.31399918	3.230697393	-2.551003695	0.5944939256	1.0
17	-26.52600098	-15.31399918	15.31399918	3.392618656	-2.118437767	0.5886679888	1.0
[RightHandThumb4]
15	-19.54599953	-11.28499985	11.28499985	0	0	0	1.0
16	-19.54599953	-11.28499985	11.28499985	0	0	0	1.0
17	-19.54599953	-11.28499985	11.28499985	0	0	0	1.0
[LeftUpLeg]
15	82.07800293	-67.51699829	-15.99599934	5.568405151	8.971351624	-4.843173504	1.0
16	82.07800293	-67.51699829	-15.99599934	9.893316269	11.8228817	-0.6283811331	1.0
17	82.07800293	-67.51699829	-15.99599934	14.55966759	12.39403152	2.162777662	1.0
[LeftLeg]
15	0	-443.7049866	2.845999956	8.857915878	-4.317808628	-0.5097360611	1.0
16	0	-443.7049866	2.845999956	8.68096447	-8.621146202	-2.823486567	1.0
17	0	-443.7049866	2.845999956	8.321406364	-9.436498642	-1.84536767	1.0
[LeftFoot]
15	0	-444.2789917	-29.8219986	-9.500108719	0.495444864	3.680473328	1.0
16	0	-444.2789917	-29.8219986	-11.86663342	0.8829051852	4.530218124	1.0
17	0	-444.2789917	-29.8219986	-10.74141884	0.5009781718	4.069888592	1.0
[LeftToeBase]
15	0	-87.28699493	107.1060028	-10.07084274	7.390312021e-06	-2.664365013e-07	1.0
16	0	-87.28699493	107.1060028	-11.65074635	-5.698206678e-06	8.770910398e-08	1.0
17	0	-87.28699493	107.1060028	-17.86526108	5.689569775e-07	-2.926956029e-07	1.0
[RightUpLeg]
15	-82.07800293	-67.51699829	-15.99599934	-35.67758942	-2.554675579	-1.232398033	1.0
16	-82.07800293	-67.51699829	-15.99599934	-37.80002975	-3.648159504	-1.026502728	1.0
17	-82.07800293	-67.51699829	-15.99599934	-37.45398331	-4.322906971	-0.8158237934	1.0
[RightLeg]
15	0	-443.7049866	2.861999989	35.0716629	-3.835013866	-7.294559479	1.0
16	0	-443.7049866	2.861999989	18.78198051	-4.267129421	-4.388994694	1.0
17	0	-443.7049866	2.861999989	8.156273842	-4.068121433	-3.030427217	1.0
[RightFoot]
15	0	-444.2770081	-29.83799934	-6.831323624	-1.757925153	1.634697914	1.0
16	0	-444.2770081	-29.83799934	-7.105100632	-0.5057162046	2.062529325	1.0
17	0	-444.2770081	-29.83799934	-8.188345909	-0.2977984846	3.175309658	1.0
[RightToeBase]
15	0	-87.28699493	107.1060028	0.9939478636	1.210367554e-05	-3.566205805e-06	1.0
16	0	-87.28699493	107.1060028	0.5341601968	-9.52550181e-06	-3.835201369e-06	1.0
17	0	-87.28699493	107.1060028	-0.5364461541	5.404461263e-06	-1.252789207e-05	1.0
[EndOfFile]
